<svg xmlns="http://www.w3.org/2000/svg" viewBox="0 0 406.716 355.2903">
  <g id="white-rgb">
    <path id="logoMark" d="M283.7041,148.3313h37.0828a6.1827,6.1827,0,0,0,6.18-6.18V55.6242a6.1827,6.1827,0,0,0-6.18-6.18H283.7041a6.1828,6.1828,0,0,1-6.18-6.1805V6.1805a6.1827,6.1827,0,0,0-6.18-6.18h-135.97a6.1827,6.1827,0,0,0-6.18,6.1805V43.2633a6.1828,6.1828,0,0,1-6.18,6.1805H85.9291a6.1827,6.1827,0,0,0-6.1805,6.18v135.97a6.1827,6.1827,0,0,0,6.1805,6.18h37.0828a6.1828,6.1828,0,0,1,6.18,6.18v37.0828a6.1827,6.1827,0,0,0,6.18,6.18h86.5266a6.1827,6.1827,0,0,0,6.18-6.18V203.9555a6.1827,6.1827,0,0,1,6.18-6.18h37.0829a6.1827,6.1827,0,0,1,6.18,6.18v37.0828a6.1827,6.1827,0,0,0,6.18,6.18h37.0828a6.1827,6.1827,0,0,0,6.18-6.18V203.9555a6.1827,6.1827,0,0,0-6.18-6.18H283.7041a6.1827,6.1827,0,0,1-6.18-6.18V154.5117A6.1827,6.1827,0,0,1,283.7041,148.3313Zm-12.3609,0H234.26a6.1827,6.1827,0,0,1-6.18-6.18V105.068a6.1828,6.1828,0,0,0-6.18-6.18H184.8166a6.1828,6.1828,0,0,0-6.18,6.18v37.0828a6.1828,6.1828,0,0,0,6.18,6.18h37.0828a6.1827,6.1827,0,0,1,6.18,6.18v37.0829a6.1827,6.1827,0,0,1-6.18,6.18H135.3728a6.1826,6.1826,0,0,1-6.18-6.18V55.6242a6.1826,6.1826,0,0,1,6.18-6.18h135.97a6.1826,6.1826,0,0,1,6.18,6.18v86.5266A6.1827,6.1827,0,0,1,271.3432,148.3313Z" style="fill: #fff"/>
    <g id="type">
      <path id="type_CompoundPathItem_" data-name="type &lt;CompoundPathItem&gt;" d="M51.3259,313.7945V329.171c0,9.3387-3.9323,15.5879-13.06,16.852l4.9851,7.1618c.8427,1.1927.2814,2.1055-1.1227,2.1055H34.8953a2.3858,2.3858,0,0,1-2.1055-1.1927l-4.915-7.8647H16.6406C4.9851,346.2329,0,339.6338,0,329.171V313.7945c0-10.5314,4.9851-17.1319,16.6406-17.1319H34.6853C46.3408,296.6626,51.3259,303.2631,51.3259,313.7945Zm-9.76-.3514c0-6.1077-1.9655-7.4418-6.8805-7.4418H16.6406c-4.845,0-6.88,1.3341-6.88,7.4418v16.0793c0,6.0377,2.1754,7.3718,6.8805,7.3718H34.6853c4.7036,0,6.8805-1.3341,6.8805-7.3718Z" style="fill: #fff"/>
      <path id="type_CompoundPathItem_2" data-name="type &lt;CompoundPathItem&gt;" d="M107.28,329.6623,96.8182,306.844,86.2154,329.6623l-3.6509,8.0047-3.37,7.2318a2.2372,2.2372,0,0,1-2.1068,1.3341H69.9962c-1.3341,0-1.8955-.8427-1.3341-2.0354l22.3284-46.2708a2.08,2.08,0,0,1,2.0354-1.2641h7.4433a2.0821,2.0821,0,0,1,2.0368,1.2641l22.257,46.2708c.5614,1.1927,0,2.0354-1.3341,2.0354H116.337a2.1336,2.1336,0,0,1-2.1054-1.3341l-3.301-7.2318Z" style="fill: #fff"/>
      <path id="type_CompoundPathItem_3" data-name="type &lt;CompoundPathItem&gt;" d="M144.4875,329.171V298.418a1.5909,1.5909,0,0,1,1.7554-1.7554h6.2492a1.59,1.59,0,0,1,1.7555,1.7554v31.1044c0,6.0377,2.1768,7.3718,6.8819,7.3718h15.7978c4.7037,0,6.81-1.3341,6.81-7.3718V298.418a1.59,1.59,0,0,1,1.7555-1.7554h6.3191a1.591,1.591,0,0,1,1.7555,1.7554v30.753c0,10.4628-5.0564,17.0619-16.6406,17.0619H161.13C149.4739,346.2329,144.4875,339.6338,144.4875,329.171Z" style="fill: #fff"/>
      <path id="type_CompoundPathItem_4" data-name="type &lt;CompoundPathItem&gt;" d="M218.136,344.4775v-46.06a1.59,1.59,0,0,1,1.7555-1.7554h27.172c11.8669,0,16.5706,4.6336,16.71,13.6909v.7028c0,5.8278-2.3868,8.566-5.125,10.2515,2.8082,1.6855,5.4764,4.7736,5.4764,10.8828v.6313c0,8.9874-4.7036,13.411-16.5706,13.411H219.8915A1.59,1.59,0,0,1,218.136,344.4775Zm29.1389-27.0321c3.6509,0,6.3891-.9127,6.3891-4.985v-1.1227c0-4.2137-2.7382-5.3364-7.2319-5.3364H227.8247v11.4441Zm-.3514,19.52c4.3537,0,7.2319-.9841,7.2319-5.1964v-1.1227c0-4.1437-2.7382-5.3364-6.5306-5.3364h-19.8v11.6555Z" style="fill: #fff"/>
      <path id="type_CompoundPathItem_5" data-name="type &lt;CompoundPathItem&gt;" d="M321.1319,329.6623,310.6705,306.844l-10.6028,22.8183-3.651,8.0047-3.37,7.2318a2.2373,2.2373,0,0,1-2.1069,1.3341h-7.0918c-1.3342,0-1.8955-.8427-1.3342-2.0354l22.3284-46.2708a2.08,2.08,0,0,1,2.0355-1.2641h7.4432a2.0791,2.0791,0,0,1,2.0355,1.2641l22.2584,46.2708c.5613,1.1927,0,2.0354-1.3341,2.0354h-7.0919a2.1337,2.1337,0,0,1-2.1055-1.3341l-3.3009-7.2318Z" style="fill: #fff"/>
      <path id="type_CompoundPathItem_6" data-name="type &lt;CompoundPathItem&gt;" d="M359.4624,344.4775v-46.06a1.59,1.59,0,0,1,1.7555-1.7554h6.3191a2.6335,2.6335,0,0,1,2.1769,1.0527l27.242,33.8439V298.418a1.591,1.591,0,0,1,1.7555-1.7554h6.2491a1.59,1.59,0,0,1,1.7555,1.7554v46.06a1.59,1.59,0,0,1-1.7555,1.7554h-6.3191a2.6317,2.6317,0,0,1-2.1769-1.0527l-27.242-33.6325v32.93a1.5909,1.5909,0,0,1-1.7554,1.7554h-6.2492A1.59,1.59,0,0,1,359.4624,344.4775Z" style="fill: #fff"/>
    </g>
  </g>
</svg>
